# xmcd CD database file
#
# Track frame offsets:
#	150
#	18895
#	39037
#	57783
#
# Disc length: 1037 seconds
#
# Revision: 0
# Processed by: cddbd v1.5.2PL0 Copyright (c) Steve Scherf et al.
# Submitted via: CD2WAV32(JP) R3.22
#
DISCID=1f040b04
DTITLE=瀬川つよし - 今夜は荒れ模様
DYEAR=2016
DGENRE=J-POP(J)
TTITLE0=今夜は荒れ模様
TTITLE1=五浦哀歌
TTITLE2=今夜は荒れ模様(カラオケ)
TTITLE3=五浦哀歌(カラオケ)
EXTD=
EXTT0=
EXTT1=
EXTT2=
EXTT3=
PLAYORDER=
